# xmcd
#
# Track frame offsets: 
#        150
#        23826
#        42188
#        64937
#        78517
#        104245
#        126513
#        143752
#        180175
#        195353
#        205177
#
# Disc length: 2903 seconds
#
# Revision: 2
# Processed by: cddbd v1.5.2PL0 Copyright (c) Steve Scherf et al.
# Submitted via: ExactAudioCopy v0.95b3
#
DISCID=980b550b
DTITLE=Auger, Brian - [01] Brian Auger and Trinity: Definitely What!
DYEAR=1968
DGENRE=Rock
TTITLE0=A Day In The Life
TTITLE1=George Bruno Money
TTITLE2=Far Horizon
TTITLE3=John Brown's Body
TTITLE4=Red Beans And Rice
TTITLE5=Bumpin' On Sunset
TTITLE6=If You Live
TTITLE7=Definitely What
TTITLE8=What You Gonna Do
TTITLE9=Red Beans And Rice (Part 1)
TTITLE10=Red Beans And Rice (Part 2)
EXTD=
EXTT0=
EXTT1=
EXTT2=
EXTT3=
EXTT4=
EXTT5=
EXTT6=
EXTT7=
EXTT8=
EXTT9=
EXTT10=
PLAYORDER=
